#N canvas 485 71 1041 618 10;
#X obj 366 395 dac~;
#X obj 318 288 *~ 0;
#X obj 339 207 r volume;
#X obj 119 89 osc~;
#X msg 119 50 \$1 50;
#X obj 119 69 line;
#X obj 21 199 *~;
#X obj 22 121 line~ 1 5;
#X msg 22 97 1 5;
#X obj 119 31 r p;
#X obj 183 119 line~ 1 5;
#X obj 211 76 delay 100;
#X msg 183 95 1 5;
#X obj 183 30 r bng1;
#X obj 22 32 r bng0;
#X obj 183 199 *~;
#X obj 280 87 noise~;
#X obj 454 157 *~;
#X obj 334 119 line~ 1 5;
#X obj 334 29 r bng2;
#X msg 334 95 1 5;
#X obj 320 319 clip~ -1 1;
#X obj 395 320 clip~ -1 1;
#X obj 428 60 mtof;
#X obj 449 184 *~ 0.5;
#X obj 259 140 hip~ 400;
#X msg 211 95 0 120;
#X msg 50 97 0 200;
#X obj 50 78 delay 50;
#X msg 428 40 62;
#X obj 431 87 osc~;
#X obj 362 76 delay 90;
#X msg 362 95 0 90;
#X obj 595 155 *~;
#X obj 475 117 line~ 1 5;
#X obj 475 27 r bng2;
#X msg 475 93 1 5;
#X obj 569 58 mtof;
#X obj 590 182 *~ 0.5;
#X msg 569 38 62;
#X obj 572 85 osc~;
#X obj 503 74 delay 90;
#X msg 503 93 0 90;
#X obj 751 156 *~;
#X obj 631 118 line~ 1 5;
#X obj 630 30 r bng2;
#X msg 631 94 1 5;
#X obj 725 59 mtof;
#X obj 746 183 *~ 0.5;
#X msg 725 39 62;
#X obj 728 86 osc~;
#X obj 659 75 delay 90;
#X msg 659 94 0 90;
#X obj 22 53 t b b;
#X obj 183 53 t b b;
#X obj 335 49 t b b b;
#X obj 481 49 t b b b;
#X obj 629 48 t b b b;
#X connect 1 0 22 0;
#X connect 1 0 21 0;
#X connect 2 0 1 1;
#X connect 3 0 6 1;
#X connect 4 0 5 0;
#X connect 5 0 3 0;
#X connect 6 0 1 0;
#X connect 7 0 6 0;
#X connect 8 0 7 0;
#X connect 9 0 4 0;
#X connect 10 0 15 0;
#X connect 11 0 26 0;
#X connect 12 0 10 0;
#X connect 13 0 54 0;
#X connect 14 0 53 0;
#X connect 15 0 1 0;
#X connect 16 0 25 0;
#X connect 17 0 24 0;
#X connect 18 0 17 0;
#X connect 19 0 55 0;
#X connect 20 0 18 0;
#X connect 21 0 0 0;
#X connect 22 0 0 1;
#X connect 23 0 30 0;
#X connect 24 0 1 0;
#X connect 25 0 15 1;
#X connect 26 0 10 0;
#X connect 27 0 7 0;
#X connect 28 0 27 0;
#X connect 29 0 23 0;
#X connect 30 0 17 1;
#X connect 31 0 32 0;
#X connect 32 0 18 0;
#X connect 33 0 38 0;
#X connect 34 0 33 0;
#X connect 35 0 56 0;
#X connect 36 0 34 0;
#X connect 37 0 40 0;
#X connect 38 0 1 0;
#X connect 39 0 37 0;
#X connect 40 0 33 1;
#X connect 41 0 42 0;
#X connect 42 0 34 0;
#X connect 43 0 48 0;
#X connect 44 0 43 0;
#X connect 45 0 57 0;
#X connect 46 0 44 0;
#X connect 47 0 50 0;
#X connect 48 0 1 0;
#X connect 49 0 47 0;
#X connect 50 0 43 1;
#X connect 51 0 52 0;
#X connect 52 0 44 0;
#X connect 53 0 8 0;
#X connect 53 1 28 0;
#X connect 54 0 12 0;
#X connect 54 1 11 0;
#X connect 55 0 20 0;
#X connect 55 1 31 0;
#X connect 55 2 29 0;
#X connect 56 0 36 0;
#X connect 56 1 41 0;
#X connect 56 2 39 0;
#X connect 57 0 46 0;
#X connect 57 1 51 0;
#X connect 57 2 49 0;
